<svg version="1.1" id="Layer_1" xmlns="http://www.w3.org/2000/svg" xmlns:xlink="http://www.w3.org/1999/xlink" x="0px" y="0px" viewBox="0 0 511.999 511.999" style="enable-background:new 0 0 511.999 511.999;" xml:space="preserve"  class=""><g><g>
	<g>
		<path d="M375.869,77.699C344.24,46.07,302.281,28.63,257.719,28.592c-0.051,0-0.097,0-0.148,0    c-44.504,0-86.44,17.367-118.084,48.905c-26.741,26.651-43.826,61.944-48.106,99.377c-3.706,32.408,2.227,65.442,16.766,94.373    l-92.811,92.809c-20.448,20.451-20.448,53.725,0.001,74.173c9.905,9.907,23.077,15.363,37.087,15.363    c14.009,0,27.181-5.455,37.086-15.363l92.809-92.809c28.89,14.517,61.876,20.455,94.24,16.78    c37.925-4.305,72.267-20.876,99.308-47.919c31.597-31.597,48.998-73.607,48.998-118.291S407.466,109.296,375.869,77.699z     M272.794,329.02c-29.458,3.346-59.547-3.245-84.717-18.556l-11.208-6.818L65.899,414.618c-3.599,3.599-8.385,5.582-13.474,5.582    c-5.09,0-9.877-1.982-13.475-5.582c-7.43-7.43-7.429-19.519,0-26.949l110.971-110.969l-6.818-11.208    c-15.331-25.202-21.917-55.325-18.544-84.822c0.766-6.695,2.037-13.24,3.742-19.624l164.223,164.222    C286.106,326.981,279.526,328.257,272.794,329.02z M352.257,290.67c-8.067,8.067-16.945,14.964-26.477,20.628L142.266,127.785    c5.702-9.597,12.658-18.529,20.794-26.638c25.343-25.257,58.903-39.163,94.511-39.163c0.039,0,0.079,0,0.118,0    c35.653,0.03,69.237,13.996,94.566,39.326c25.29,25.291,39.217,58.915,39.217,94.68S377.546,265.38,352.257,290.67z" style="fill:#2196F3" data-original="#000000" class="active-path" data-old_color="#000000"></path>
	</g>
</g><g>
	<g>
		<path d="M448.753,356.915c-34.874,0-63.247,28.372-63.247,63.246c0,34.874,28.373,63.246,63.247,63.246    c34.874,0,63.246-28.372,63.246-63.246C511.999,385.286,483.628,356.915,448.753,356.915z M448.753,450.015    c-16.462,0-29.854-13.392-29.854-29.853c0-16.462,13.393-29.853,29.854-29.853c16.462,0,29.853,13.392,29.853,29.853    C478.606,436.623,465.215,450.015,448.753,450.015z" style="fill:#2196F3" data-original="#000000" class="active-path" data-old_color="#000000"></path>
	</g>
</g></g> </svg>
